<?xml version="1.0" standalone="no"?>
<!DOCTYPE svg PUBLIC "-//W3C//DTD SVG 20010904//EN"
 "http://www.w3.org/TR/2001/REC-SVG-20010904/DTD/svg10.dtd">
<svg version="1.0" xmlns="http://www.w3.org/2000/svg"
 width="690.000000pt" height="690.000000pt" viewBox="0 0 690.000000 690.000000"
 preserveAspectRatio="xMidYMid meet">
<metadata>
Created by potrace 1.14, written by Peter Selinger 2001-2017
</metadata>
<g transform="translate(0.000000,690.000000) scale(0.100000,-0.100000)"
fill="#000000" stroke="none">
<path d="M3128 6741 c-70 -9 -129 -19 -132 -21 -70 -71 -845 -831 -1080 -1059
l-168 -165 82 -78 c45 -43 85 -78 89 -78 3 1 199 191 436 424 374 368 432 422
448 412 15 -9 22 -5 44 24 49 65 151 158 226 204 138 86 287 122 469 113 212
-10 397 -98 547 -262 61 -67 96 -125 127 -209 l23 -61 1 300 0 300 243 -245
c133 -135 349 -354 479 -487 l236 -241 -336 -333 c-186 -183 -393 -391 -462
-461 -69 -71 -133 -128 -142 -128 -17 0 -18 30 -18 485 l0 485 -69 0 -69 0 0
83 c-2 215 -131 416 -330 516 -94 47 -156 61 -272 61 -114 0 -177 -13 -270
-57 -140 -66 -272 -230 -308 -383 -55 -234 17 -467 193 -628 216 -197 587
-186 805 24 l68 65 71 -35 c39 -20 71 -40 71 -45 0 -26 -108 -140 -185 -196
-131 -93 -248 -134 -410 -142 -182 -9 -324 27 -459 118 -77 51 -203 176 -233
231 l-18 33 -3 -35 c-3 -31 -33 -65 -279 -307 l-276 -273 254 -2 254 -3 0
-190 0 -190 -182 -3 c-194 -3 -188 -4 -329 56 -238 101 -582 90 -849 -25 -156
-68 -362 -236 -452 -369 -222 -326 -245 -800 -58 -1142 147 -267 411 -481 675
-546 83 -20 192 -36 253 -36 l47 0 0 -135 0 -135 445 0 445 0 0 -632 0 -632
-97 103 c-54 57 -104 113 -111 123 -13 17 -35 -2 -278 -247 -146 -146 -262
-270 -259 -276 4 -5 12 -9 19 -9 7 0 53 -17 102 -39 121 -52 370 -134 517
-170 366 -90 767 -119 1127 -82 200 21 420 56 450 72 16 8 -1 25 -512 544
l-228 230 -71 -75 c-40 -41 -176 -183 -304 -315 -127 -132 -259 -269 -293
-305 l-61 -65 -1 258 0 258 272 277 c150 152 313 317 362 366 l90 89 373 -379
373 -378 0 642 0 642 175 0 c164 0 175 1 166 18 -9 16 -120 145 -268 311 l-73
81 0 938 c0 515 3 947 6 960 6 22 9 22 170 22 l164 0 0 -431 c0 -260 4 -429 9
-427 5 1 201 192 435 422 233 231 431 423 440 428 8 5 100 7 204 6 l190 -3
-635 -638 c-349 -351 -633 -642 -631 -647 3 -7 680 -702 934 -958 l82 -82 443
2 443 3 54 130 c156 378 252 784 269 1138 l6 138 -164 -3 -164 -3 -5 -693 -5
-694 -80 89 c-44 48 -143 153 -220 233 -77 80 -217 226 -310 325 -94 99 -205
216 -247 261 l-77 82 1 378 c1 286 5 385 14 405 7 15 131 142 275 283 l262
256 299 0 299 0 -6 23 c-43 153 -142 408 -161 414 -6 2 -16 -8 -24 -22 -12
-22 -19 -25 -74 -25 l-60 0 64 65 64 65 -27 56 -28 56 -57 -50 c-31 -28 -88
-82 -127 -121 -67 -68 -71 -71 -117 -71 -27 0 -48 4 -48 9 0 5 69 76 154 158
l155 148 -31 53 -31 54 -212 -212 -211 -211 -55 3 -54 3 244 240 243 241 -33
54 c-18 30 -34 57 -36 59 -2 3 -139 -131 -305 -297 l-301 -302 -53 0 c-30 0
-54 4 -54 9 0 5 21 28 48 51 26 23 174 168 330 323 313 311 294 282 233 357
l-29 34 -388 -387 -389 -387 -54 0 -55 0 424 418 424 418 -90 102 -89 102
-520 -520 -520 -520 -52 0 -52 0 515 513 c284 281 530 529 547 551 l31 39 -75
69 c-486 455 -1132 766 -1804 869 -197 30 -642 36 -827 10z m558 -651 c129
-62 202 -160 225 -302 21 -130 -10 -243 -96 -344 -89 -104 -201 -150 -339
-141 -108 7 -177 35 -251 101 -179 159 -189 445 -22 609 89 86 163 115 301
116 96 1 102 0 182 -39z m554 -1587 l-1 -188 -52 -42 c-29 -23 -115 -98 -191
-167 l-138 -126 -204 0 -204 0 0 -290 0 -290 305 0 c168 0 305 -4 305 -8 0 -5
-26 -33 -57 -62 -32 -30 -103 -97 -158 -150 l-100 -95 -147 0 c-92 0 -148 -4
-148 -10 0 -5 -1 -255 -3 -555 l-2 -545 -177 -3 -178 -2 0 1360 0 1360 575 0
575 0 0 -187z m-1461 -435 c0 -117 -4 -232 -7 -255 -6 -38 -26 -61 -214 -251
-115 -115 -208 -212 -208 -216 0 -4 91 -99 203 -212 111 -113 207 -215 214
-227 13 -23 19 -507 7 -507 -3 0 -74 71 -157 158 -83 86 -228 235 -322 330
l-171 173 -36 -34 c-69 -65 -225 -86 -351 -47 -265 82 -354 428 -165 636 98
107 243 152 384 119 65 -15 135 -45 164 -71 14 -12 57 27 330 301 173 173 318
315 322 315 5 0 8 -96 7 -212z m-891 120 l-3 -83 -76 -7 c-149 -13 -281 -57
-382 -126 -63 -44 -158 -143 -196 -206 -170 -282 -158 -611 34 -881 119 -169
323 -279 538 -292 l87 -6 0 -85 0 -85 -102 6 c-385 22 -716 301 -823 695 -22
81 -30 260 -16 367 15 113 61 251 111 335 157 264 464 441 778 449 l53 1 -3
-82z m676 -3619 c51 -40 20 -129 -46 -129 -65 0 -94 88 -42 129 15 12 34 21
44 21 10 0 29 -9 44 -21z"/>
<path d="M2740 6679 c-47 -10 -140 -35 -206 -55 l-121 -36 -327 -321 -327
-320 83 -83 c46 -46 86 -83 89 -81 4 1 182 173 395 383 214 209 425 415 469
457 91 87 90 89 -55 56z"/>
<path d="M2115 6476 c-164 -71 -445 -230 -529 -299 l-30 -24 73 -69 c40 -38
77 -70 81 -72 5 -2 127 114 272 257 145 143 261 260 258 260 -3 0 -59 -24
-125 -53z"/>
<path d="M1425 6059 c-27 -22 -67 -56 -88 -76 l-39 -35 83 -84 c46 -46 86 -84
89 -84 4 0 45 38 93 84 l87 84 -78 76 c-43 42 -83 76 -88 76 -5 -1 -31 -19
-59 -41z"/>
<path d="M2262 5572 l-503 -504 38 -27 c21 -16 60 -51 86 -80 33 -35 52 -49
62 -44 8 5 94 87 192 183 362 357 579 563 600 573 30 13 35 55 31 247 l-3 155
-503 -503z"/>
<path d="M1157 5818 l-78 -73 90 -90 91 -90 77 78 78 77 -85 85 c-46 47 -87
85 -90 85 -3 0 -40 -33 -83 -72z"/>
<path d="M1610 5805 l-85 -85 80 -80 c44 -44 83 -79 86 -78 11 5 143 130 157
150 12 16 5 27 -60 98 -40 44 -78 80 -83 80 -6 0 -48 -38 -95 -85z"/>
<path d="M4706 5800 c-64 -20 -114 -101 -101 -166 9 -49 71 -114 111 -115 47
-2 78 2 99 13 117 60 103 224 -24 267 -39 13 -45 13 -85 1z"/>
<path d="M955 5616 c-112 -124 -110 -106 -16 -200 l81 -81 90 90 90 90 -89 88
-88 88 -68 -75z"/>
<path d="M1393 5589 c-40 -39 -73 -74 -73 -78 1 -3 36 -43 78 -89 l77 -82 80
80 80 80 -80 80 c-44 44 -82 80 -85 80 -3 0 -38 -32 -77 -71z"/>
<path d="M2330 5181 c-234 -229 -445 -433 -469 -453 l-45 -38 168 0 168 0 211
203 c117 111 265 256 329 322 65 66 118 114 118 106 0 -8 2 -12 5 -10 2 3 -4
34 -15 69 -11 36 -25 99 -32 141 l-13 77 -425 -417z"/>
<path d="M1160 5365 l-84 -85 81 -81 81 -82 91 83 c50 45 91 83 91 84 0 6
-163 166 -169 166 -3 0 -44 -38 -91 -85z"/>
<path d="M748 5363 c-30 -43 -72 -107 -93 -142 l-38 -64 57 -53 58 -53 116
114 117 113 -75 79 c-41 43 -78 79 -81 81 -4 2 -31 -32 -61 -75z"/>
<path d="M1608 5363 l-77 -76 86 -85 86 -84 79 80 80 79 -82 79 c-45 44 -85
80 -88 82 -4 1 -42 -33 -84 -75z"/>
<path d="M1385 5151 l-89 -91 81 -81 82 -81 43 35 c24 20 65 58 92 86 l48 51
-83 85 -84 86 -90 -90z"/>
<path d="M740 4959 l-275 -269 169 0 168 0 186 181 c103 99 187 184 187 189 0
7 -151 170 -157 169 -2 0 -127 -121 -278 -270z"/>
<path d="M513 4988 c-96 -190 -132 -268 -125 -268 4 0 68 61 142 135 l134 135
-44 45 c-24 25 -48 45 -52 45 -4 0 -29 -42 -55 -92z"/>
<path d="M1613 4929 l-92 -92 67 -73 c90 -99 100 -98 210 4 l83 77 -88 88 -89
87 -91 -91z"/>
<path d="M1073 4849 l-160 -159 176 1 176 1 69 74 69 75 -69 72 c-38 40 -76
78 -85 84 -12 9 -44 -17 -176 -148z"/>
<path d="M1410 4735 c-24 -24 -42 -46 -39 -47 2 -2 45 -2 95 0 l92 3 -48 45
c-26 24 -49 44 -51 44 -3 0 -25 -20 -49 -45z"/>
<path d="M6011 3459 c-133 -28 -165 -208 -49 -279 69 -42 164 -17 207 54 66
107 -36 251 -158 225z"/>
<path d="M100 3312 c0 -90 26 -349 46 -454 48 -260 132 -523 246 -775 l50
-113 537 1 c359 1 523 4 496 10 -92 22 -193 53 -243 75 -151 66 -321 195 -437
331 -95 111 -151 201 -216 343 -83 183 -123 357 -132 570 l-2 75 -173 3 -172
2 0 -68z"/>
<path d="M6146 2728 c-22 -31 -20 -64 4 -88 27 -27 56 -25 85 5 30 29 32 54 5
83 -27 29 -74 29 -94 0z"/>
<path d="M4806 2364 c-60 -60 -16 -174 67 -174 68 0 121 72 98 133 -18 46 -47
67 -95 67 -33 0 -49 -6 -70 -26z"/>
<path d="M4457 1752 c-33 -37 -16 -92 28 -92 47 0 71 62 37 93 -24 22 -45 21
-65 -1z"/>
<path d="M4812 1754 c-41 -28 -16 -94 36 -94 21 0 52 34 52 57 0 17 -36 53
-53 53 -7 0 -23 -7 -35 -16z"/>
<path d="M5264 1745 c-15 -23 -15 -27 0 -50 27 -42 86 -26 86 23 0 55 -56 72
-86 27z"/>
<path d="M5680 1751 c-15 -29 -12 -46 10 -66 42 -38 98 12 70 64 -14 28 -65
29 -80 2z"/>
<path d="M6092 1758 c-7 -7 -12 -25 -12 -40 0 -34 41 -59 68 -41 21 12 28 59
11 79 -14 17 -51 18 -67 2z"/>
<path d="M2425 1713 c-67 -18 -116 -103 -96 -166 37 -110 183 -131 241 -34 35
56 19 141 -34 179 -26 19 -81 29 -111 21z"/>
<path d="M1004 1677 c-116 -106 18 -289 151 -207 113 70 66 240 -66 240 -42 0
-55 -5 -85 -33z"/>
<path d="M1506 1330 c-186 -187 -337 -343 -334 -345 2 -2 67 -54 144 -115 155
-124 329 -243 509 -348 l119 -71 254 252 c139 139 262 264 273 278 l19 27
-182 188 c-100 104 -245 253 -323 332 l-140 143 -339 -341z m187 -272 c33 -39
18 -97 -32 -118 -38 -15 -80 3 -100 44 -12 25 -12 33 2 55 31 53 93 62 130 19z
m470 0 c14 -17 17 -32 13 -58 -7 -42 -28 -60 -73 -60 -44 0 -73 30 -73 74 0
70 88 99 133 44z"/>
<path d="M5060 1561 c-15 -29 -12 -46 10 -66 42 -38 98 12 70 64 -14 28 -65
29 -80 2z"/>
<path d="M5482 1568 c-19 -19 -15 -66 7 -78 31 -16 49 -12 66 14 23 35 5 76
-33 76 -15 0 -33 -5 -40 -12z"/>
<path d="M5887 1562 c-22 -24 -21 -45 1 -65 49 -45 113 20 66 67 -21 21 -47
20 -67 -2z"/>
<path d="M4452 1448 c-41 -50 6 -116 63 -90 48 22 25 102 -29 102 -13 0 -28
-6 -34 -12z"/>
<path d="M4808 1449 c-24 -14 -23 -61 2 -84 45 -41 110 18 76 70 -17 26 -48
32 -78 14z"/>
<path d="M5272 1378 c-7 -7 -12 -24 -12 -38 0 -31 17 -50 45 -50 28 0 45 19
45 50 0 31 -17 50 -45 50 -12 0 -26 -5 -33 -12z"/>
<path d="M5685 1370 c-15 -16 -17 -26 -9 -48 8 -22 15 -27 44 -27 29 0 36 5
44 27 8 22 6 32 -9 48 -10 11 -26 20 -35 20 -9 0 -25 -9 -35 -20z"/>
<path d="M5070 1170 c-11 -11 -20 -27 -20 -35 0 -17 35 -55 50 -55 17 0 50 39
50 58 0 21 -29 52 -48 52 -7 0 -21 -9 -32 -20z"/>
<path d="M5486 1174 c-19 -18 -20 -38 -6 -65 13 -23 53 -25 74 -3 20 19 20 34
0 62 -18 26 -46 28 -68 6z"/>
<path d="M4443 1134 c-15 -24 -15 -29 -2 -53 18 -32 54 -39 80 -15 24 22 24
56 1 77 -27 25 -59 21 -79 -9z"/>
<path d="M4808 1149 c-38 -21 -10 -99 35 -99 43 0 66 79 28 100 -24 12 -41 12
-63 -1z"/>
<path d="M5276 987 c-22 -16 -18 -65 5 -80 23 -14 67 0 74 24 8 25 -19 69 -43
69 -10 0 -26 -6 -36 -13z"/>
<path d="M4446 838 c-9 -12 -16 -28 -16 -34 0 -13 47 -54 61 -54 16 0 49 40
49 59 0 48 -67 68 -94 29z"/>
<path d="M4806 844 c-35 -35 -11 -86 40 -86 30 0 44 16 44 54 0 43 -53 63 -84
32z"/>
<path d="M5070 810 c-11 -11 -20 -27 -20 -35 0 -16 34 -55 48 -55 20 0 52 34
52 55 0 21 -32 55 -52 55 -5 0 -17 -9 -28 -20z"/>
<path d="M4451 556 c-16 -19 -10 -66 10 -79 44 -28 95 25 69 72 -13 25 -61 29
-79 7z"/>
<path d="M4802 558 c-33 -33 11 -98 57 -83 24 7 38 51 24 74 -13 20 -64 26
-81 9z"/>
</g>
</svg>
